HIERARCHY
ROOT Hips
{
    OFFSET 0.000000 0.000000 0.000000
    CHANNELS 6 Xposition Yposition Zposition Zrotation Xrotation Yrotation
    JOINT Spine
    {
        OFFSET -0.000000 7.897928 0.000000
        CHANNELS 3 Zrotation Xrotation Yrotation
        JOINT Spine1
        {
            OFFSET -0.000000 22.881742 0.000000
            CHANNELS 3 Zrotation Xrotation Yrotation
            JOINT Neck
            {
                OFFSET -0.000000 22.787771 2.071616
                CHANNELS 3 Zrotation Xrotation Yrotation
                JOINT Head
                {
                    OFFSET -0.000000 13.484266 -1.926324
                    CHANNELS 3 Zrotation Xrotation Yrotation
                    End Site
                    {
                        OFFSET -0.000000 24.079046 0.000000
                    }
                }
            }
            JOINT LeftShoulder
            {
                OFFSET 3.854963 21.096247 -0.110468
                CHANNELS 3 Zrotation Xrotation Yrotation
                JOINT LeftArm
                {
                    OFFSET 10.572188 0.000000 0.000000
                    CHANNELS 3 Zrotation Xrotation Yrotation
                    JOINT LeftForeArm
                    {
                        OFFSET 34.932854 0.000000 0.000000
                        CHANNELS 3 Zrotation Xrotation Yrotation
                        JOINT LeftHand
                        {
                            OFFSET 23.279285 0.000000 0.000000
                            CHANNELS 3 Zrotation Xrotation Yrotation
                            End Site
                            {
                                OFFSET 14.447429 0.000000 0.000000
                            }
                        }
                    }
                }
            }
            JOINT RightShoulder
            {
                OFFSET -3.825334 21.096247 -0.110468
                CHANNELS 3 Zrotation Xrotation Yrotation
                JOINT RightArm
                {
                    OFFSET -10.572188 0.000000 0.000000
                    CHANNELS 3 Zrotation Xrotation Yrotation
                    JOINT RightForeArm
                    {
                        OFFSET -34.932854 0.000000 0.000000
                        CHANNELS 3 Zrotation Xrotation Yrotation
                        JOINT RightHand
                        {
                            OFFSET -23.279285 0.000000 0.000000
                            CHANNELS 3 Zrotation Xrotation Yrotation
                            End Site
                            {
                                OFFSET -14.447429 0.000000 0.000000
                            }
                        }
                    }
                }
            }
        }
    }
    JOINT LeftUpLeg
    {
        OFFSET 9.631618 0.000000 0.000000
        CHANNELS 3 Zrotation Xrotation Yrotation
        JOINT LeftLeg
        {
            OFFSET -0.000000 -35.385456 0.000000
            CHANNELS 3 Zrotation Xrotation Yrotation
            JOINT LeftFoot
            {
                OFFSET -0.000000 -43.284000 0.000000
                CHANNELS 3 Zrotation Xrotation Yrotation
                JOINT LeftToeBase
                {
                    OFFSET -0.000000 -6.260552 14.447429
                    CHANNELS 3 Zrotation Xrotation Yrotation
                    End Site
                    {
                        OFFSET -0.000000 0.000000 3.852648
                    }
                }
            }
        }
    }
    JOINT RightUpLeg
    {
        OFFSET -9.631618 0.000000 0.000000
        CHANNELS 3 Zrotation Xrotation Yrotation
        JOINT RightLeg
        {
            OFFSET -0.000000 -35.385456 0.000000
            CHANNELS 3 Zrotation Xrotation Yrotation
            JOINT RightFoot
            {
                OFFSET -0.000000 -43.284000 0.000000
                CHANNELS 3 Zrotation Xrotation Yrotation
                JOINT RightToeBase
                {
                    OFFSET -0.000000 -6.260552 14.447429
                    CHANNELS 3 Zrotation Xrotation Yrotation
                    End Site
                    {
                        OFFSET -0.000000 0.000000 3.852648
                    }
                }
            }
        }
    }
}
MOTION
Frames:    5
Frame Time:    0.008333
60.020370    88.408928    17.590015    3.340060    5.599544    83.592537    -9.933523    -3.637486    -5.855748    26.505039    3.720849    -6.416117    -20.688095    22.486668    -7.161156    9.889077    -6.140932    -6.785023    36.478905    -6.210999    9.476940    12.425777    -1.458626    -10.424847    28.899925    -19.757952    -14.983930    8.351138    -15.808535    3.612292    -1.526053    12.952322    13.458981    44.919136    27.583132    8.173949    -0.088080    -8.897614    4.863976    2.998534    -8.575991    12.242764    0.225509    4.502995    1.137025    -5.381155    14.919211    5.934766    -8.828533    -10.403758    15.759469    0.000000    0.000000    0.000000    -17.244452    -2.341389    -0.726614    6.198278    19.919464    -1.635561    5.736566    -9.949864    -7.955379    0.000000    0.000000    0.000000    
59.981800    88.409653    17.657887    3.223324    5.633080    83.834373    -9.848467    -3.946366    -5.797297    26.336941    4.138421    -6.425794    -20.277399    22.042509    -7.385011    9.541987    -5.924760    -6.989091    35.343781    -5.818371    9.556767    11.578629    -0.378060    -9.865272    26.805517    -19.590326    -11.899717    6.425732    -16.793581    1.744128    -1.726806    12.716585    12.967425    45.384838    27.665054    8.306501    -0.020087    -9.161498    4.917004    2.292426    -8.921807    12.043319    0.261914    4.295270    0.907391    -5.366343    14.982281    5.868883    -8.836294    -10.361701    15.831491    0.000000    0.000000    0.000000    -17.214897    -2.454838    -0.802979    6.250163    20.041744    -1.699369    5.658935    -10.034501    -8.088811    0.000000    0.000000    0.000000    
59.985168    88.389282    17.734558    3.247841    5.622945    84.014580    -9.498581    -4.061359    -5.750557    25.735586    4.324310    -6.401276    -20.131426    22.088341    -7.416712    9.724294    -5.975552    -6.983562    33.987213    -5.101146    9.538750    10.829686    0.403738    -9.161551    25.100225    -19.934284    -8.975075    3.108169    -18.064480    -0.907684    -1.486197    12.780345    12.795988    45.635109    27.215181    8.265113    0.009138    -9.157189    4.752846    2.606036    -8.881118    12.259137    0.318771    4.322857    0.683144    -5.352002    14.954808    5.843733    -8.795994    -10.382360    15.890665    0.000000    0.000000    0.000000    -17.154594    -2.412212    -0.843901    6.282524    20.163050    -1.663565    5.577826    -10.190656    -8.244612    0.000000    0.000000    0.000000    
59.972691    88.368759    17.824680    3.224316    5.629741    84.198761    -9.249063    -4.080373    -5.632878    25.312037    4.256942    -6.258996    -20.048403    22.385624    -7.472535    9.904321    -6.239623    -7.039003    32.767586    -4.530293    9.235664    9.625283    1.167648    -8.320352    23.510275    -20.290991    -6.107537    -0.854738    -19.069639    -3.339214    -1.273944    12.807320    12.437213    45.909359    27.065742    8.129900    0.074378    -9.194308    4.574811    2.528628    -8.923939    12.490500    0.392202    4.402418    0.438908    -5.378035    14.726329    5.814039    -8.714000    -10.339008    15.983262    0.000000    0.000000    0.000000    -17.086134    -2.434862    -0.890448    6.295259    20.292271    -1.698853    5.539327    -10.330401    -8.329793    0.000000    0.000000    0.000000    
59.952576    88.351547    17.914566    3.177329    5.654788    84.398880    -9.062318    -4.091888    -5.489347    24.946321    4.146084    -6.082430    -19.811440    22.470858    -7.533397    9.793261    -6.196856    -7.130142    31.353642    -3.852527    8.874402    8.438576    1.916002    -7.569134    22.350422    -20.840557    -3.260283    -3.108524    -20.118710    -4.649522    -1.037341    12.870984    11.980206    46.075581    27.053635    8.030913    0.060046    -9.302516    4.526258    2.604430    -9.023561    12.485226    0.408796    4.264806    0.348519    -5.291315    14.826621    5.745116    -8.745999    -10.338682    15.969569    0.000000    0.000000    0.000000    -17.035019    -2.474101    -0.846499    6.352469    20.382896    -1.844299    5.465821    -10.451990    -8.425031    0.000000    0.000000    0.000000    
